<svg xmlns="http://www.w3.org/2000/svg" viewBox="56.00 0.00 300.00 313.00" role="img" aria-hidden="true">
<defs>
    <radialGradient id="bg-glow" cx="55%" cy="45%" r="55%">
      <stop offset="0%" stop-color="#182030"></stop>
      <stop offset="100%" stop-color="#0b0f15"></stop>
    </radialGradient>
    <radialGradient id="body-g" cx="36%" cy="32%" r="58%">
      <stop offset="0%" stop-color="#6898be"></stop>
      <stop offset="50%" stop-color="#5282a8"></stop>
      <stop offset="100%" stop-color="#3e6c92"></stop>
    </radialGradient>
    <radialGradient id="spec-g" cx="28%" cy="24%" r="16%">
      <stop offset="0%" stop-color="white" stop-opacity="0.28"></stop>
      <stop offset="100%" stop-color="white" stop-opacity="0"></stop>
    </radialGradient>
    <radialGradient id="moon-g" cx="36%" cy="32%" r="58%">
      <stop offset="0%" stop-color="#7cb2d4"></stop>
      <stop offset="50%" stop-color="#669cc0"></stop>
      <stop offset="100%" stop-color="#5086aa"></stop>
    </radialGradient>
    <radialGradient id="moon-spec-g" cx="28%" cy="24%" r="18%">
      <stop offset="0%" stop-color="white" stop-opacity="0.26"></stop>
      <stop offset="100%" stop-color="white" stop-opacity="0"></stop>
    </radialGradient>
  </defs>
<g>
    <!-- Planet body -->
    <circle cx="190" cy="175" r="130" fill="url(#body-g)"></circle>
    <circle cx="190" cy="175" r="130" fill="url(#spec-g)"></circle>

    <!-- Sunglasses -->
    <rect x="102" y="140" width="78" height="48" rx="10" fill="#0e1a26" stroke="#080f18" stroke-width="3"></rect>
    <rect x="192" y="138" width="78" height="48" rx="10" fill="#0e1a26" stroke="#080f18" stroke-width="3"></rect>
    <path d="M180,162 Q187,150 192,162" fill="none" stroke="#080f18" stroke-width="4"></path>
    <line x1="102" y1="159" x2="62" y2="149" stroke="#080f18" stroke-width="4" stroke-linecap="round"></line>
    <line x1="270" y1="157" x2="305" y2="147" stroke="#080f18" stroke-width="4" stroke-linecap="round"></line>
    <rect x="110" y="147" width="22" height="10" rx="4" fill="white" opacity="0.06"></rect>
    <rect x="200" y="145" width="22" height="10" rx="4" fill="white" opacity="0.06"></rect>

    <!-- Smirk -->
    <path d="M158,222 Q190,250 232,215" fill="none" stroke="white" stroke-width="5.5" stroke-linecap="round" opacity="0.55"></path>

    <!-- Moon with tiny shades -->
    <circle cx="302" cy="50" r="50" fill="url(#moon-g)"></circle>
    <circle cx="302" cy="50" r="50" fill="url(#moon-spec-g)"></circle>
    <rect x="278" y="40" width="22" height="16" rx="4" fill="#0e1a26" stroke="#080f18" stroke-width="1.5"></rect>
    <rect x="304" y="39" width="22" height="16" rx="4" fill="#0e1a26" stroke="#080f18" stroke-width="1.5"></rect>
    <path d="M300,47 Q302,43 304,47" fill="none" stroke="#080f18" stroke-width="2"></path>
    <line x1="278" y1="47" x2="265" y2="43" stroke="#080f18" stroke-width="2" stroke-linecap="round"></line>
    <line x1="326" y1="46" x2="338" y2="42" stroke="#080f18" stroke-width="2" stroke-linecap="round"></line>
  </g>
</svg>
