<svg xmlns="http://www.w3.org/2000/svg" viewBox="0 0 640 470" role="img" aria-hidden="true">
  <defs>
    <radialGradient id="cl-bg" cx="50%" cy="40%" r="80%">
      <stop offset="0%" stop-color="#0e1620"/>
      <stop offset="100%" stop-color="#050810"/>
    </radialGradient>
    <radialGradient id="cl-glow" cx="50%" cy="30%" r="55%">
      <stop offset="0%" stop-color="#f0c040" stop-opacity="0.14"/>
      <stop offset="100%" stop-color="#2a3e54" stop-opacity="0"/>
    </radialGradient>
  </defs>
  <rect width="640" height="470" fill="url(#cl-bg)"/>
  <rect width="640" height="470" fill="url(#cl-glow)"/>
  <!-- Scales of justice / legal doc -->
  <g transform="translate(200,100)">
    <rect x="0" y="0" width="240" height="270" rx="8" fill="#14202e" stroke="#f0c040" stroke-width="1" opacity="0.9"/>
    <!-- Header -->
    <rect x="24" y="24" width="120" height="8" rx="4" fill="#f0c040" opacity="0.7"/>
    <rect x="24" y="44" width="80" height="4" rx="2" fill="#f0c040" opacity="0.3"/>
    <!-- Paragraph markers -->
    <text x="24" y="90" fill="#f0c040" font-family="monospace" font-size="11" opacity="0.5">¶16</text>
    <rect x="50" y="78" width="160" height="3" rx="1" fill="#f0c040" opacity="0.2"/>
    <rect x="50" y="88" width="140" height="3" rx="1" fill="#f0c040" opacity="0.15"/>
    <text x="24" y="120" fill="#f0c040" font-family="monospace" font-size="11" opacity="0.5">¶22</text>
    <rect x="50" y="108" width="170" height="3" rx="1" fill="#f0c040" opacity="0.2"/>
    <rect x="50" y="118" width="120" height="3" rx="1" fill="#f0c040" opacity="0.15"/>
    <!-- Dollar amount -->
    <text x="24" y="160" fill="#4ade80" font-family="monospace" font-size="13" opacity="0.7">$15,000</text>
    <!-- Disposition -->
    <text x="24" y="200" fill="#f0c040" font-family="monospace" font-size="11" opacity="0.4">disposition:</text>
    <rect x="110" y="192" width="100" height="3" rx="1" fill="#f0c040" opacity="0.2"/>
  </g>
  <text x="320" y="420" text-anchor="middle" fill="#647080" font-family="monospace" font-size="20">soma:caselaw.*</text>
  <text x="320" y="445" text-anchor="middle" fill="#9dafc4" font-family="monospace" font-size="13">¶ · $ · disposition — lawyer's-eye parser</text>
</svg>
