<svg xmlns="http://www.w3.org/2000/svg" viewBox="0 0 640 470" role="img" aria-hidden="true">
  <defs>
    <radialGradient id="rd-bg" cx="50%" cy="40%" r="80%">
      <stop offset="0%" stop-color="#0e1620"/>
      <stop offset="100%" stop-color="#050810"/>
    </radialGradient>
    <radialGradient id="rd-glow" cx="50%" cy="30%" r="55%">
      <stop offset="0%" stop-color="#7cb2d4" stop-opacity="0.16"/>
      <stop offset="100%" stop-color="#2a3e54" stop-opacity="0"/>
    </radialGradient>
  </defs>
  <rect width="640" height="470" fill="url(#rd-bg)"/>
  <rect width="640" height="470" fill="url(#rd-glow)"/>
  <!-- Document icons representing fetched docs -->
  <g transform="translate(120,160)">
    <rect x="0" y="0" width="120" height="150" rx="6" fill="#14202e" stroke="#7cb2d4" stroke-width="1" opacity="0.9"/>
    <rect x="16" y="20" width="70" height="6" rx="3" fill="#7cb2d4" opacity="0.6"/>
    <rect x="16" y="36" width="88" height="4" rx="2" fill="#7cb2d4" opacity="0.3"/>
    <rect x="16" y="48" width="60" height="4" rx="2" fill="#7cb2d4" opacity="0.3"/>
    <rect x="16" y="60" width="75" height="4" rx="2" fill="#7cb2d4" opacity="0.2"/>
    <rect x="16" y="72" width="45" height="4" rx="2" fill="#7cb2d4" opacity="0.2"/>
  </g>
  <g transform="translate(280,140)">
    <rect x="0" y="0" width="120" height="150" rx="6" fill="#14202e" stroke="#4ade80" stroke-width="1" opacity="0.9"/>
    <rect x="16" y="20" width="70" height="6" rx="3" fill="#4ade80" opacity="0.6"/>
    <rect x="16" y="36" width="88" height="4" rx="2" fill="#4ade80" opacity="0.3"/>
    <rect x="16" y="48" width="55" height="4" rx="2" fill="#4ade80" opacity="0.3"/>
    <rect x="16" y="60" width="80" height="4" rx="2" fill="#4ade80" opacity="0.2"/>
  </g>
  <g transform="translate(400,180)">
    <rect x="0" y="0" width="120" height="150" rx="6" fill="#14202e" stroke="#f0883e" stroke-width="1" opacity="0.9"/>
    <rect x="16" y="20" width="60" height="6" rx="3" fill="#f0883e" opacity="0.6"/>
    <rect x="16" y="36" width="78" height="4" rx="2" fill="#f0883e" opacity="0.3"/>
    <rect x="16" y="48" width="50" height="4" rx="2" fill="#f0883e" opacity="0.3"/>
  </g>
  <!-- Arrow connecting cloud → docs -->
  <path d="M 380 340 Q 320 380 240 340" stroke="#647080" stroke-width="1.5" fill="none" stroke-dasharray="6,3" opacity="0.5"/>
  <text x="320" y="400" text-anchor="middle" fill="#647080" font-family="monospace" font-size="20">soma:refdocs.*</text>
  <text x="320" y="430" text-anchor="middle" fill="#9dafc4" font-family="monospace" font-size="13">llms.txt → clean markdown</text>
</svg>
