<svg xmlns="http://www.w3.org/2000/svg" viewBox="0 0 890 320" fill="none">
  <style>
    .stat-num { font-family: 'SF Mono', 'Fira Code', monospace; font-size: 42px; fill: #6494be; font-weight: 700; }
    .stat-label { font-family: -apple-system, 'Segoe UI', sans-serif; font-size: 12px; fill: #6e7681; }
    .stat-box { stroke: rgba(100,148,190,0.25); stroke-width: 1; fill: rgba(22,27,34,0.35); rx: 10; }
    .flow-label { font-family: 'SF Mono', monospace; font-size: 12px; fill: #c9d1d9; }
    .flow-box { stroke: rgba(100,148,190,0.2); stroke-width: 1; fill: rgba(22,27,34,0.3); rx: 8; }
    .flow-arrow { stroke: #6494be; stroke-width: 1.5; fill: none; }
    .flow-head { fill: #6494be; }
    .result-box { stroke: rgba(100,148,190,0.4); stroke-width: 1; fill: rgba(100,148,190,0.05); rx: 8; }
    .result-label { font-family: 'SF Mono', monospace; font-size: 12px; fill: #6494be; }
    .section-label { font-family: -apple-system, 'Segoe UI', sans-serif; font-size: 13px; fill: #8b949e; }
  </style>

  <!-- Stats row — full width, evenly spaced -->
  <rect x="0" y="0" width="200" height="95" class="stat-box"/>
  <text x="100" y="48" text-anchor="middle" class="stat-num">800</text>
  <text x="100" y="75" text-anchor="middle" class="stat-label">files reorganized</text>

  <rect x="228" y="0" width="200" height="95" class="stat-box"/>
  <text x="328" y="48" text-anchor="middle" class="stat-num">1,601</text>
  <text x="328" y="75" text-anchor="middle" class="stat-label">→ 6 files</text>

  <rect x="456" y="0" width="200" height="95" class="stat-box"/>
  <text x="556" y="48" text-anchor="middle" class="stat-num">48</text>
  <text x="556" y="75" text-anchor="middle" class="stat-label">plans rescued</text>

  <rect x="684" y="0" width="206" height="95" class="stat-box"/>
  <text x="787" y="48" text-anchor="middle" class="stat-num">0</text>
  <text x="787" y="75" text-anchor="middle" class="stat-label">stale refs remaining</text>

  <!-- What emerged -->
  <text x="0" y="140" class="section-label">What emerged from the cleanup:</text>

  <rect x="0" y="158" width="145" height="42" class="flow-box"/>
  <text x="72" y="184" text-anchor="middle" class="flow-label">move studio/</text>

  <line x1="145" y1="179" x2="175" y2="179" class="flow-arrow"/>
  <polygon points="175,174 187,179 175,184" class="flow-head"/>

  <rect x="187" y="158" width="190" height="42" class="flow-box"/>
  <text x="282" y="184" text-anchor="middle" class="flow-label">"what if it signals?"</text>

  <line x1="377" y1="179" x2="407" y2="179" class="flow-arrow"/>
  <polygon points="407,174 419,179 407,184" class="flow-head"/>

  <rect x="419" y="158" width="195" height="42" class="result-box"/>
  <text x="516" y="184" text-anchor="middle" class="result-label">soma-route v1.1.0</text>

  <line x1="614" y1="179" x2="644" y2="179" class="flow-arrow"/>
  <polygon points="644,174 656,179 644,184" class="flow-head"/>

  <rect x="656" y="158" width="180" height="42" class="result-box"/>
  <text x="746" y="184" text-anchor="middle" class="result-label">external inbox</text>

  <!-- The spiral keeps turning -->
  <rect x="0" y="240" width="130" height="42" class="flow-box"/>
  <text x="65" y="266" text-anchor="middle" class="flow-label">audit gaps</text>

  <line x1="130" y1="261" x2="158" y2="261" class="flow-arrow"/>
  <polygon points="158,256 170,261 158,266" class="flow-head"/>

  <rect x="170" y="240" width="120" height="42" class="flow-box"/>
  <text x="230" y="266" text-anchor="middle" class="flow-label">build fix</text>

  <line x1="290" y1="261" x2="318" y2="261" class="flow-arrow"/>
  <polygon points="318,256 330,261 318,266" class="flow-head"/>

  <rect x="330" y="240" width="110" height="42" class="flow-box"/>
  <text x="385" y="266" text-anchor="middle" class="flow-label">verify</text>

  <line x1="440" y1="261" x2="468" y2="261" class="flow-arrow"/>
  <polygon points="468,256 480,261 468,266" class="flow-head"/>

  <rect x="480" y="240" width="110" height="42" class="flow-box"/>
  <text x="535" y="266" text-anchor="middle" class="flow-label">ship</text>

  <line x1="590" y1="261" x2="618" y2="261" class="flow-arrow"/>
  <polygon points="618,256 630,261 618,266" class="flow-head"/>

  <text x="645" y="266" style="font-family: -apple-system, sans-serif; font-size: 13px; fill: #f0883e; font-style: italic;">the spiral keeps turning</text>
</svg>
