<svg xmlns="http://www.w3.org/2000/svg" viewBox="0 0 840 340" fill="none">
  <style>
    .stat-num { font-family: 'SF Mono', 'Fira Code', monospace; font-size: 38px; fill: #6494be; font-weight: 700; }
    .stat-label { font-family: -apple-system, 'Segoe UI', sans-serif; font-size: 11px; fill: #6e7681; }
    .stat-box { stroke: #30363d; stroke-width: 1; fill: rgba(22,27,34,0.7); rx: 8; }
    .flow-label { font-family: 'SF Mono', monospace; font-size: 11px; fill: #c9d1d9; }
    .flow-box { stroke: #30363d; stroke-width: 1; fill: rgba(22,27,34,0.7); rx: 6; }
    .flow-arrow { stroke: #6494be; stroke-width: 1.5; fill: none; }
    .flow-head { fill: #6494be; }
    .result-box { stroke: #6494be; stroke-width: 1.5; fill: rgba(100,148,190,0.06); rx: 6; }
    .result-label { font-family: 'SF Mono', monospace; font-size: 11px; fill: #6494be; }
    .section-label { font-family: -apple-system, 'Segoe UI', sans-serif; font-size: 13px; fill: #6e7681; }
  </style>

  <!-- Stats row -->
  <rect x="20" y="15" width="180" height="90" class="stat-box"/>
  <text x="110" y="60" text-anchor="middle" class="stat-num">800</text>
  <text x="110" y="85" text-anchor="middle" class="stat-label">files reorganized</text>

  <rect x="220" y="15" width="180" height="90" class="stat-box"/>
  <text x="310" y="60" text-anchor="middle" class="stat-num">1,601</text>
  <text x="310" y="85" text-anchor="middle" class="stat-label">→ 6 files</text>

  <rect x="420" y="15" width="180" height="90" class="stat-box"/>
  <text x="510" y="60" text-anchor="middle" class="stat-num">48</text>
  <text x="510" y="85" text-anchor="middle" class="stat-label">plans rescued</text>

  <rect x="620" y="15" width="180" height="90" class="stat-box"/>
  <text x="710" y="60" text-anchor="middle" class="stat-num">0</text>
  <text x="710" y="85" text-anchor="middle" class="stat-label">stale refs remaining</text>

  <!-- What emerged -->
  <text x="20" y="150" class="section-label">What emerged from the cleanup:</text>

  <rect x="20" y="170" width="140" height="38" class="flow-box"/>
  <text x="90" y="194" text-anchor="middle" class="flow-label">move studio/</text>

  <line x1="160" y1="189" x2="188" y2="189" class="flow-arrow"/>
  <polygon points="188,184 200,189 188,194" class="flow-head"/>

  <rect x="200" y="170" width="170" height="38" class="flow-box"/>
  <text x="285" y="194" text-anchor="middle" class="flow-label">"what if it signals?"</text>

  <line x1="370" y1="189" x2="398" y2="189" class="flow-arrow"/>
  <polygon points="398,184 410,189 398,194" class="flow-head"/>

  <rect x="410" y="170" width="180" height="38" class="result-box"/>
  <text x="500" y="194" text-anchor="middle" class="result-label">soma-route v1.1.0</text>

  <line x1="590" y1="189" x2="618" y2="189" class="flow-arrow"/>
  <polygon points="618,184 630,189 618,194" class="flow-head"/>

  <rect x="630" y="170" width="170" height="38" class="result-box"/>
  <text x="715" y="194" text-anchor="middle" class="result-label">external inbox</text>

  <!-- The spiral keeps turning -->
  <rect x="20" y="250" width="115" height="38" class="flow-box"/>
  <text x="77" y="274" text-anchor="middle" class="flow-label">audit gaps</text>

  <line x1="135" y1="269" x2="158" y2="269" class="flow-arrow"/>
  <polygon points="158,264 170,269 158,274" class="flow-head"/>

  <rect x="170" y="250" width="105" height="38" class="flow-box"/>
  <text x="222" y="274" text-anchor="middle" class="flow-label">build fix</text>

  <line x1="275" y1="269" x2="298" y2="269" class="flow-arrow"/>
  <polygon points="298,264 310,269 298,274" class="flow-head"/>

  <rect x="310" y="250" width="105" height="38" class="flow-box"/>
  <text x="362" y="274" text-anchor="middle" class="flow-label">verify</text>

  <line x1="415" y1="269" x2="438" y2="269" class="flow-arrow"/>
  <polygon points="438,264 450,269 438,274" class="flow-head"/>

  <rect x="450" y="250" width="95" height="38" class="flow-box"/>
  <text x="497" y="274" text-anchor="middle" class="flow-label">ship</text>

  <line x1="545" y1="269" x2="568" y2="269" class="flow-arrow"/>
  <polygon points="568,264 580,269 568,274" class="flow-head"/>

  <text x="590" y="274" style="font-family: -apple-system, sans-serif; font-size: 12px; fill: #f0883e; font-style: italic;">the spiral keeps turning</text>
</svg>
