<svg xmlns="http://www.w3.org/2000/svg" width="1200" height="630" viewBox="0 0 1200 630">
  <defs>
    <radialGradient id="bg-glow" cx="55%" cy="45%" r="55%">
      <stop offset="0%" stop-color="#182030"/>
      <stop offset="100%" stop-color="#0b0f15"/>
    </radialGradient>
    <radialGradient id="body-g" cx="36%" cy="32%" r="58%">
      <stop offset="0%" stop-color="#6898be"/>
      <stop offset="50%" stop-color="#5282a8"/>
      <stop offset="100%" stop-color="#3e6c92"/>
    </radialGradient>
    <radialGradient id="spec-g" cx="28%" cy="24%" r="16%">
      <stop offset="0%" stop-color="white" stop-opacity="0.28"/>
      <stop offset="100%" stop-color="white" stop-opacity="0"/>
    </radialGradient>
    <radialGradient id="moon-g" cx="36%" cy="32%" r="58%">
      <stop offset="0%" stop-color="#7cb2d4"/>
      <stop offset="50%" stop-color="#669cc0"/>
      <stop offset="100%" stop-color="#5086aa"/>
    </radialGradient>
    <radialGradient id="moon-spec-g" cx="28%" cy="24%" r="18%">
      <stop offset="0%" stop-color="white" stop-opacity="0.26"/>
      <stop offset="100%" stop-color="white" stop-opacity="0"/>
    </radialGradient>
    <!-- Crack pattern for "broken claw" -->
    <filter id="rough" x="-2%" y="-2%" width="104%" height="104%">
      <feTurbulence type="fractalNoise" baseFrequency="0.04" numOctaves="4" result="noise"/>
      <feDisplacementMap in="SourceGraphic" in2="noise" scale="2" xChannelSelector="R" yChannelSelector="G"/>
    </filter>
  </defs>

  <!-- Background -->
  <rect width="1200" height="630" fill="url(#bg-glow)"/>
  <pattern id="dots" x="0" y="0" width="34" height="34" patternUnits="userSpaceOnUse">
    <circle cx="17" cy="17" r="0.4" fill="#6494be" opacity="0.08"/>
  </pattern>
  <rect width="1200" height="630" fill="url(#dots)"/>

  <!-- ═══ MASCOT — right, vertically centered ═══ -->
  <g transform="translate(580, 45) scale(1.85)">
    <!-- Planet body -->
    <circle cx="190" cy="175" r="130" fill="url(#body-g)"/>
    <circle cx="190" cy="175" r="130" fill="url(#spec-g)"/>

    <!-- Sunglasses — chunky, cool -->
    <rect x="102" y="140" width="78" height="48" rx="10" fill="#0e1a26" stroke="#080f18" stroke-width="3"/>
    <rect x="192" y="138" width="78" height="48" rx="10" fill="#0e1a26" stroke="#080f18" stroke-width="3"/>
    <path d="M180,162 Q187,150 192,162" fill="none" stroke="#080f18" stroke-width="4"/>
    <line x1="102" y1="159" x2="62" y2="149" stroke="#080f18" stroke-width="4" stroke-linecap="round"/>
    <line x1="270" y1="157" x2="305" y2="147" stroke="#080f18" stroke-width="4" stroke-linecap="round"/>
    <rect x="110" y="147" width="22" height="10" rx="4" fill="white" opacity="0.06"/>
    <rect x="200" y="145" width="22" height="10" rx="4" fill="white" opacity="0.06"/>

    <!-- Smirk -->
    <path d="M158,222 Q190,250 232,215" fill="none" stroke="white" stroke-width="5.5" stroke-linecap="round" opacity="0.55"/>

    <!-- Moon with tiny shades -->
    <circle cx="302" cy="50" r="50" fill="url(#moon-g)"/>
    <circle cx="302" cy="50" r="50" fill="url(#moon-spec-g)"/>
    <rect x="278" y="40" width="22" height="16" rx="4" fill="#0e1a26" stroke="#080f18" stroke-width="1.5"/>
    <rect x="304" y="39" width="22" height="16" rx="4" fill="#0e1a26" stroke="#080f18" stroke-width="1.5"/>
    <path d="M300,47 Q302,43 304,47" fill="none" stroke="#080f18" stroke-width="2"/>
    <line x1="278" y1="47" x2="265" y2="43" stroke="#080f18" stroke-width="2" stroke-linecap="round"/>
    <line x1="326" y1="46" x2="338" y2="42" stroke="#080f18" stroke-width="2" stroke-linecap="round"/>
  </g>

  <!-- ═══ "BROKEN CLAW" — cracked text, top left ═══ -->
  <!-- Broken/cracked "claw code" struck through -->
  <g opacity="0.3">
    <text x="60" y="75" style="font-family: 'SF Mono', 'Fira Code', monospace; font-size: 21px; fill: #6e7681; letter-spacing: 5px; font-weight: 600;">CLAW CODE</text>
    <!-- Strike-through -->
    <line x1="56" y1="69" x2="268" y2="69" stroke="#6e7681" stroke-width="2"/>
    <!-- Crack lines through the text -->
    <path d="M120,58 L125,72 L118,82" fill="none" stroke="#f0883e" stroke-width="1.5" opacity="0.6"/>
    <path d="M190,55 L195,70 L188,80 L192,88" fill="none" stroke="#f0883e" stroke-width="1.2" opacity="0.5"/>
    <path d="M155,60 L152,75" fill="none" stroke="#f0883e" stroke-width="1" opacity="0.4"/>
  </g>

  <!-- ═══ MAIN TEXT — Georgia/serif for punch ═══ -->
  <!-- Fibonacci spacing: lines at y=175, 280 (+105), 390 (+110) -->
  <text x="55" y="190" style="font-family: Georgia, 'Times New Roman', serif; font-size: 89px; fill: #e4eaf4; font-weight: 700; letter-spacing: -2px;">Your cache</text>
  <text x="55" y="300" style="font-family: Georgia, 'Times New Roman', serif; font-size: 89px; fill: #f0883e; font-weight: 700; letter-spacing: -2px;">expired.</text>
  <text x="55" y="420" style="font-family: Georgia, 'Times New Roman', serif; font-size: 89px; fill: #e4eaf4; font-weight: 700; letter-spacing: -2px;">Mine didn't.</text>

  <!-- Keepalive heart — Fibonacci below last line (420 + 55 = 475) -->
  <text x="58" y="488" style="font-family: 'SF Mono', monospace; font-size: 21px; fill: #f0883e; opacity: 0.8;">&#9829;</text>
  <text x="84" y="488" style="font-family: 'SF Mono', monospace; font-size: 19px; fill: #6494be; opacity: 0.55;">5/5</text>

  <!-- ═══ BRAND BAR — bottom, clean ═══ -->
  <line x1="55" y1="565" x2="520" y2="565" stroke="#30363d" stroke-width="1" opacity="0.6"/>
  <text x="55" y="597" style="font-family: 'SF Mono', monospace; font-size: 15px; fill: #6494be; opacity: 0.65; letter-spacing: 3px;">SOMA</text>
  <text x="520" y="597" text-anchor="end" style="font-family: 'SF Mono', monospace; font-size: 13px; fill: #6e7681; opacity: 0.6;">soma.gravicity.ai</text>
</svg>