<svg xmlns="http://www.w3.org/2000/svg" width="1200" height="630" viewBox="0 0 1200 630">
  <defs>
    <radialGradient id="bg-glow" cx="60%" cy="50%" r="55%">
      <stop offset="0%" stop-color="#1a2535"/>
      <stop offset="100%" stop-color="#0d1117"/>
    </radialGradient>
    <radialGradient id="body-g" cx="36%" cy="32%" r="58%">
      <stop offset="0%" stop-color="#6898be"/>
      <stop offset="50%" stop-color="#5282a8"/>
      <stop offset="100%" stop-color="#3e6c92"/>
    </radialGradient>
    <radialGradient id="spec-g" cx="28%" cy="24%" r="16%">
      <stop offset="0%" stop-color="white" stop-opacity="0.28"/>
      <stop offset="100%" stop-color="white" stop-opacity="0"/>
    </radialGradient>
    <radialGradient id="moon-g" cx="36%" cy="32%" r="58%">
      <stop offset="0%" stop-color="#7cb2d4"/>
      <stop offset="50%" stop-color="#669cc0"/>
      <stop offset="100%" stop-color="#5086aa"/>
    </radialGradient>
    <radialGradient id="moon-spec-g" cx="28%" cy="24%" r="18%">
      <stop offset="0%" stop-color="white" stop-opacity="0.26"/>
      <stop offset="100%" stop-color="white" stop-opacity="0"/>
    </radialGradient>
  </defs>

  <!-- Background -->
  <rect width="1200" height="630" fill="url(#bg-glow)"/>
  <pattern id="dots" x="0" y="0" width="40" height="40" patternUnits="userSpaceOnUse">
    <circle cx="20" cy="20" r="0.5" fill="#6494be" opacity="0.1"/>
  </pattern>
  <rect width="1200" height="630" fill="url(#dots)"/>

  <!-- ═══ MASCOT — right side, vertically centered ═══ -->
  <g transform="translate(580, 45) scale(1.85)">
    <!-- Planet body -->
    <circle cx="190" cy="175" r="130" fill="url(#body-g)"/>
    <circle cx="190" cy="175" r="130" fill="url(#spec-g)"/>

    <!-- Sunglasses -->
    <rect x="102" y="140" width="78" height="48" rx="10" fill="#0e1a26" stroke="#080f18" stroke-width="3"/>
    <rect x="192" y="138" width="78" height="48" rx="10" fill="#0e1a26" stroke="#080f18" stroke-width="3"/>
    <!-- Bridge -->
    <path d="M180,162 Q187,150 192,162" fill="none" stroke="#080f18" stroke-width="4"/>
    <!-- Arms -->
    <line x1="102" y1="159" x2="62" y2="149" stroke="#080f18" stroke-width="4" stroke-linecap="round"/>
    <line x1="270" y1="157" x2="305" y2="147" stroke="#080f18" stroke-width="4" stroke-linecap="round"/>
    <!-- Lens shine -->
    <rect x="110" y="147" width="22" height="10" rx="4" fill="white" opacity="0.06"/>
    <rect x="200" y="145" width="22" height="10" rx="4" fill="white" opacity="0.06"/>

    <!-- Smirk — asymmetric, smug -->
    <path d="M158,222 Q190,250 232,215" fill="none" stroke="white" stroke-width="5.5" stroke-linecap="round" opacity="0.55"/>

    <!-- Moon with tiny shades -->
    <circle cx="302" cy="50" r="50" fill="url(#moon-g)"/>
    <circle cx="302" cy="50" r="50" fill="url(#moon-spec-g)"/>
    <rect x="278" y="40" width="22" height="16" rx="4" fill="#0e1a26" stroke="#080f18" stroke-width="1.5"/>
    <rect x="304" y="39" width="22" height="16" rx="4" fill="#0e1a26" stroke="#080f18" stroke-width="1.5"/>
    <path d="M300,47 Q302,43 304,47" fill="none" stroke="#080f18" stroke-width="2"/>
    <line x1="278" y1="47" x2="265" y2="43" stroke="#080f18" stroke-width="2" stroke-linecap="round"/>
    <line x1="326" y1="46" x2="338" y2="42" stroke="#080f18" stroke-width="2" stroke-linecap="round"/>
  </g>

  <!-- ═══ TEXT — left, vertically centered ═══ -->
  <text x="60" y="185" style="font-family: -apple-system, 'Segoe UI', sans-serif; font-size: 80px; fill: #e4eaf4; font-weight: 800; letter-spacing: -2px;">Your cache</text>
  <text x="60" y="285" style="font-family: -apple-system, 'Segoe UI', sans-serif; font-size: 80px; fill: #f0883e; font-weight: 800; letter-spacing: -2px;">expired.</text>
  <text x="60" y="395" style="font-family: -apple-system, 'Segoe UI', sans-serif; font-size: 80px; fill: #e4eaf4; font-weight: 800; letter-spacing: -2px;">Mine didn't.</text>

  <!-- Keepalive heart -->
  <text x="62" y="460" style="font-family: 'SF Mono', monospace; font-size: 24px; fill: #f0883e; opacity: 0.75;">&#9829;</text>
  <text x="92" y="460" style="font-family: 'SF Mono', monospace; font-size: 22px; fill: #6494be; opacity: 0.6;">5/5</text>

  <!-- Brand bar — bottom, full width feel -->
  <line x1="60" y1="570" x2="540" y2="570" stroke="#30363d" stroke-width="1"/>
  <text x="60" y="600" style="font-family: 'SF Mono', monospace; font-size: 16px; fill: #6494be; opacity: 0.7; letter-spacing: 3px;">SOMA</text>
  <text x="540" y="600" text-anchor="end" style="font-family: 'SF Mono', monospace; font-size: 14px; fill: #6e7681; opacity: 0.7;">soma.gravicity.ai</text>
</svg>