<svg xmlns="http://www.w3.org/2000/svg" viewBox="0 0 600 1020" width="600" height="1020" role="img" aria-label="The product we were building had never been used by itself — dogfood day five (mobile).">
  <defs>
    <radialGradient id="bgM" cx="50%" cy="40%" r="90%">
      <stop offset="0%" stop-color="#15202e"/>
      <stop offset="100%" stop-color="#080c13"/>
    </radialGradient>
  </defs>
  <rect width="600" height="1020" fill="url(#bgM)"/>

  <text x="300" y="100" text-anchor="middle" style="font-family: 'SF Mono', monospace; font-size: 14px; fill: #6494be; letter-spacing: 10px; opacity: 0.8; font-weight: 600;">DOGFOOD</text>

  <!-- Huge opening quote mark -->
  <g transform="translate(40, 180)">
    <path d="M 0 60 Q 0 10 35 5 L 50 5 Q 50 40 30 55 Q 35 70 40 90 L 0 90 Z" fill="#3a2818" opacity="0.85"/>
    <path d="M 62 60 Q 62 10 97 5 L 112 5 Q 112 40 92 55 Q 97 70 102 90 L 62 90 Z" fill="#3a2818" opacity="0.85"/>
  </g>

  <!-- Pull quote -->
  <text x="300" y="410" text-anchor="middle" style="font-family: Georgia, serif; font-size: 36px; fill: #e4eaf4; font-style: italic; font-weight: 400;">The product</text>
  <text x="300" y="460" text-anchor="middle" style="font-family: Georgia, serif; font-size: 36px; fill: #e4eaf4; font-style: italic; font-weight: 400;">we were building</text>
  <text x="300" y="510" text-anchor="middle" style="font-family: Georgia, serif; font-size: 36px; fill: #e4eaf4; font-style: italic; font-weight: 400;">had never been used</text>
  <text x="300" y="580" text-anchor="middle" style="font-family: Georgia, serif; font-size: 52px; fill: #f0883e; font-style: italic; font-weight: 700;">by itself.</text>

  <!-- Closing quote mark (scaled + moved below text) -->
  <g transform="translate(440, 680) rotate(180) scale(0.75)">
    <path d="M 0 60 Q 0 10 35 5 L 50 5 Q 50 40 30 55 Q 35 70 40 90 L 0 90 Z" fill="#3a2818" opacity="0.85"/>
    <path d="M 62 60 Q 62 10 97 5 L 112 5 Q 112 40 92 55 Q 97 70 102 90 L 62 90 Z" fill="#3a2818" opacity="0.85"/>
  </g>

  <!-- Divider + attribution -->
  <line x1="220" y1="770" x2="380" y2="770" stroke="#6494be" stroke-width="1" opacity="0.6"/>
  <text x="300" y="815" text-anchor="middle" style="font-family: 'SF Mono', monospace; font-size: 14px; fill: #6494be; letter-spacing: 5px; opacity: 0.8;">DAY FIVE</text>
  <text x="300" y="845" text-anchor="middle" style="font-family: 'SF Mono', monospace; font-size: 13px; fill: #6494be; letter-spacing: 4px; opacity: 0.7;">TWENTY SESSIONS IN</text>

  <!-- Brand -->
  <line x1="100" y1="945" x2="500" y2="945" stroke="#30363d" stroke-width="1" opacity="0.6"/>
  <text x="100" y="980" style="font-family: 'SF Mono', monospace; font-size: 16px; fill: #6494be; opacity: 0.7; letter-spacing: 4px;">SOMA</text>
  <text x="500" y="980" text-anchor="end" style="font-family: 'SF Mono', monospace; font-size: 13px; fill: #6e7681; opacity: 0.6;">soma.gravicity.ai</text>
</svg>
