<svg xmlns="http://www.w3.org/2000/svg" viewBox="0 0 1200 630" width="1200" height="630">
  <defs>
    <radialGradient id="bg" cx="30%" cy="30%" r="100%">
      <stop offset="0%" stop-color="#0a1018"/>
      <stop offset="100%" stop-color="#030508"/>
    </radialGradient>
    <radialGradient id="glow" cx="70%" cy="50%" r="50%">
      <stop offset="0%" stop-color="#6494be" stop-opacity="0.08"/>
      <stop offset="100%" stop-color="#6494be" stop-opacity="0"/>
    </radialGradient>
  </defs>

  <!-- Background -->
  <rect width="1200" height="630" fill="url(#bg)"/>
  <rect width="1200" height="630" fill="url(#glow)"/>

  <!-- Stars -->
  <g fill="#c9d1d9" opacity="0.3">
    <circle cx="100" cy="80" r="1.5"/>
    <circle cx="340" cy="45" r="1"/>
    <circle cx="580" cy="120" r="1.5"/>
    <circle cx="820" cy="60" r="1"/>
    <circle cx="1050" cy="90" r="1.5"/>
    <circle cx="200" cy="180" r="1"/>
    <circle cx="900" cy="170" r="1"/>
    <circle cx="450" cy="200" r="1.5"/>
    <circle cx="1100" cy="220" r="1"/>
    <circle cx="150" cy="300" r="1"/>
    <circle cx="500" cy="350" r="1.5"/>
    <circle cx="1000" cy="400" r="1"/>
  </g>

  <!-- Timeline dots — 18 days -->
  <g stroke="#f0883e" stroke-width="2" fill="none" opacity="0.4">
    <line x1="160" y1="420" x2="1040" y2="420"/>
  </g>
  <circle cx="160" cy="420" r="5" fill="#4ade80"/>
  <circle cx="360" cy="420" r="5" fill="#f0883e" stroke="#f0883e" stroke-width="2"/>
  <circle cx="360" cy="420" r="12" fill="none" stroke="#f0883e" stroke-width="1.5" stroke-dasharray="4,4" opacity="0.5"/>
  <circle cx="1040" cy="420" r="5" fill="#6494be"/>
  <text x="160" y="450" text-anchor="middle" fill="#4ade80" font-family="SF Mono, monospace" font-size="12" opacity="0.7">RELEASED</text>
  <text x="360" y="450" text-anchor="middle" fill="#f0883e" font-family="SF Mono, monospace" font-size="12" opacity="0.7">JUNE 23</text>
  <text x="1040" y="450" text-anchor="middle" fill="#6494be" font-family="SF Mono, monospace" font-size="12" opacity="0.7">JULY 11</text>
  <text x="600" y="450" text-anchor="middle" fill="#647080" font-family="SF Mono, monospace" font-size="11" opacity="0.5">18 DAYS OFFSHORE</text>

  <!-- Main text -->
  <text x="80" y="220" fill="#c9d1d9" font-family="Georgia, serif" font-size="89" font-weight="bold" letter-spacing="-1">
    The 18 Days
  </text>
  <text x="80" y="310" fill="#c9d1d9" font-family="Georgia, serif" font-size="89" font-weight="bold" letter-spacing="-1">
    Fable Was Gone
  </text>

  <!-- Subtitle -->
  <text x="80" y="370" fill="#9dafc4" font-family="Georgia, serif" font-size="22" font-style="italic">
    When they took the model away and gave it back different
  </text>

  <!-- Brand bar -->
  <rect x="0" y="590" width="1200" height="40" fill="#0a1018" opacity="0.8"/>
  <text x="40" y="616" fill="#9dafc4" font-family="SF Mono, monospace" font-size="14" font-weight="600" letter-spacing="2">SOMA</text>
  <text x="1160" y="616" text-anchor="end" fill="#647080" font-family="SF Mono, monospace" font-size="12">soma.gravicity.ai</text>
</svg>
