<svg xmlns="http://www.w3.org/2000/svg" viewBox="0 0 600 1020" width="600" height="1020" role="img" aria-label="Two Spirals — process and concept (mobile).">
  <defs>
    <radialGradient id="bg" cx="50%" cy="40%" r="95%">
      <stop offset="0%" stop-color="#15202e"/>
      <stop offset="100%" stop-color="#060a0f"/>
    </radialGradient>
    <radialGradient id="cg" cx="50%" cy="50%" r="50%">
      <stop offset="0%" stop-color="#00e5ff" stop-opacity="0.55"/>
      <stop offset="60%" stop-color="#00e5ff" stop-opacity="0.1"/>
      <stop offset="100%" stop-color="#00e5ff" stop-opacity="0"/>
    </radialGradient>
    <radialGradient id="do" cx="50%" cy="50%" r="50%">
      <stop offset="0%" stop-color="#f0883e" stop-opacity="0.5"/>
      <stop offset="100%" stop-color="#f0883e" stop-opacity="0"/>
    </radialGradient>
    <radialGradient id="db" cx="50%" cy="50%" r="50%">
      <stop offset="0%" stop-color="#6494be" stop-opacity="0.5"/>
      <stop offset="100%" stop-color="#6494be" stop-opacity="0"/>
    </radialGradient>
    <radialGradient id="dy" cx="50%" cy="50%" r="50%">
      <stop offset="0%" stop-color="#f1fa8c" stop-opacity="0.5"/>
      <stop offset="100%" stop-color="#f1fa8c" stop-opacity="0"/>
    </radialGradient>
  </defs>
  <rect width="600" height="1020" fill="url(#bg)"/>

  <!-- Category -->
  <text x="300" y="80" text-anchor="middle" style="font-family: 'SF Mono', monospace; font-size: 13px; fill: #6494be; letter-spacing: 7px; opacity: 0.85; font-weight: 600;">REFLECTION</text>

  <!-- Hero title -->
  <text x="300" y="170" text-anchor="middle" style="font-family: Georgia, serif; font-size: 72px; fill: #e4eaf4; font-weight: 700; letter-spacing: -2px;">Two</text>
  <text x="300" y="240" text-anchor="middle" style="font-family: Georgia, serif; font-size: 72px; fill: #f0883e; font-style: italic; font-weight: 700; letter-spacing: -2px;">Spirals.</text>

  <!-- ─── Top spiral: PROCESS ─── -->
  <g transform="translate(300, 420)">
    <circle r="100" fill="none" stroke="#6494be" stroke-width="0.8" opacity="0.15"/>
    <circle r="72" fill="none" stroke="#6494be" stroke-width="0.8" opacity="0.2"/>
    <circle r="45" fill="none" stroke="#6494be" stroke-width="0.8" opacity="0.25"/>
    <g>
      <circle cx="0" cy="-100" r="7" fill="url(#db)"/><circle cx="0" cy="-100" r="4" fill="#6494be"/>
      <circle cx="71" cy="-71" r="7" fill="url(#db)"/><circle cx="71" cy="-71" r="4" fill="#6494be"/>
      <circle cx="45" cy="0" r="9" fill="url(#do)"/><circle cx="45" cy="0" r="5" fill="#f0883e"/>
      <circle cx="-23" cy="39" r="9" fill="url(#do)"/><circle cx="-23" cy="39" r="5" fill="#f0883e"/>
      <circle cx="-23" cy="-39" r="9" fill="url(#do)"/><circle cx="-23" cy="-39" r="5" fill="#f0883e"/>
      <circle cx="71" cy="71" r="7" fill="url(#db)"/><circle cx="71" cy="71" r="4" fill="#6494be"/>
      <circle cx="-71" cy="71" r="7" fill="url(#db)"/><circle cx="-71" cy="71" r="4" fill="#6494be"/>
      <path d="M 71,71 Q 110,0 45,0" fill="none" stroke="#f0883e" stroke-width="1.3" stroke-dasharray="4,3" opacity="0.6"/>
    </g>
    <circle r="16" fill="url(#cg)"/>
    <text y="5" text-anchor="middle" style="font-family: serif; font-size: 14px; fill: #00e5ff; opacity: 0.75;">σ</text>
  </g>
  <text x="300" y="575" text-anchor="middle" style="font-family: 'SF Mono', monospace; font-size: 14px; fill: #6494be; letter-spacing: 5px; font-weight: 600;">PROCESS</text>
  <text x="300" y="600" text-anchor="middle" style="font-family: Georgia, serif; font-size: 16px; fill: #c9d1d9; opacity: 0.7; font-style: italic;">7 phases · one session</text>

  <!-- divider -->
  <line x1="170" y1="630" x2="430" y2="630" stroke="#30363d" stroke-width="1" opacity="0.4"/>

  <!-- ─── Bottom spiral: CONCEPT ─── -->
  <g transform="translate(300, 785)">
    <circle r="120" fill="none" stroke="#6494be" stroke-width="0.8" opacity="0.12"/>
    <circle r="92" fill="none" stroke="#6494be" stroke-width="0.8" opacity="0.16"/>
    <circle r="64" fill="none" stroke="#6494be" stroke-width="0.8" opacity="0.2"/>
    <circle r="36" fill="none" stroke="#6494be" stroke-width="0.8" opacity="0.28"/>
    <g>
      <circle cx="0" cy="-36" r="5" fill="url(#db)"/><circle cx="0" cy="-36" r="3" fill="#6494be"/>
      <circle cx="31" cy="18" r="5" fill="url(#db)"/><circle cx="31" cy="18" r="3" fill="#6494be"/>
      <circle cx="-31" cy="18" r="5" fill="url(#db)"/><circle cx="-31" cy="18" r="3" fill="#6494be"/>
      <circle cx="55" cy="-32" r="6" fill="url(#db)"/><circle cx="55" cy="-32" r="3" fill="#6494be"/>
      <circle cx="-37" cy="-53" r="6" fill="#ff6b9d" opacity="0.9"/>
      <circle cx="-62" cy="16" r="6" fill="url(#db)"/><circle cx="-62" cy="16" r="3" fill="#6494be"/>
      <circle cx="18" cy="62" r="6" fill="url(#db)"/><circle cx="18" cy="62" r="3" fill="#6494be"/>
      <circle cx="55" cy="32" r="6" fill="#ff6b9d" opacity="0.9"/>
      <circle cx="0" cy="-90" r="6" fill="#50fa7b"/>
      <circle cx="78" cy="-46" r="6" fill="#50fa7b"/>
      <circle cx="92" cy="9" r="6" fill="#50fa7b"/>
      <circle cx="78" cy="64" r="6" fill="#50fa7b"/>
      <circle cx="-55" cy="75" r="6" fill="#50fa7b"/>
      <circle cx="-92" cy="0" r="6" fill="#50fa7b"/>
      <circle cx="-78" cy="-54" r="6" fill="url(#db)"/><circle cx="-78" cy="-54" r="3" fill="#6494be"/>
      <circle cx="28" cy="-87" r="6" fill="url(#db)"/><circle cx="28" cy="-87" r="3" fill="#6494be"/>
      <circle cx="14" cy="-118" r="5" fill="#50fa7b"/>
      <circle cx="87" cy="-83" r="5" fill="#50fa7b"/>
      <circle cx="118" cy="23" r="5" fill="#50fa7b"/>
      <circle cx="87" cy="83" r="5" fill="#50fa7b"/>
      <circle cx="-28" cy="116" r="5" fill="#50fa7b"/>
      <!-- seeds -->
      <circle cx="-88" cy="81" r="8" fill="url(#dy)"/>
      <circle cx="-88" cy="81" r="5" fill="none" stroke="#f1fa8c" stroke-width="1.5" stroke-dasharray="2,2"/>
      <circle cx="-118" cy="-23" r="8" fill="url(#dy)"/>
      <circle cx="-118" cy="-23" r="5" fill="none" stroke="#f1fa8c" stroke-width="1.5" stroke-dasharray="2,2"/>
      <circle cx="-55" cy="-106" r="8" fill="url(#dy)"/>
      <circle cx="-55" cy="-106" r="5" fill="none" stroke="#f1fa8c" stroke-width="1.5" stroke-dasharray="2,2"/>
      <circle cx="60" cy="-103" r="8" fill="url(#dy)"/>
      <circle cx="60" cy="-103" r="5" fill="none" stroke="#f1fa8c" stroke-width="1.5" stroke-dasharray="2,2"/>
    </g>
    <circle r="22" fill="url(#cg)"/>
    <text y="6" text-anchor="middle" style="font-family: serif; font-size: 18px; fill: #00e5ff; opacity: 0.85;">σῶμα</text>
  </g>
  <text x="300" y="945" text-anchor="middle" style="font-family: 'SF Mono', monospace; font-size: 14px; fill: #6494be; letter-spacing: 5px; font-weight: 600;">CONCEPT</text>
  <text x="300" y="970" text-anchor="middle" style="font-family: Georgia, serif; font-size: 16px; fill: #c9d1d9; opacity: 0.7; font-style: italic;">4 rings · whole project</text>

  <!-- Brand -->
  <text x="100" y="1005" style="font-family: 'SF Mono', monospace; font-size: 13px; fill: #6494be; opacity: 0.7; letter-spacing: 4px;">SOMA</text>
  <text x="500" y="1005" text-anchor="end" style="font-family: 'SF Mono', monospace; font-size: 11px; fill: #6e7681; opacity: 0.6;">soma.gravicity.ai</text>
</svg>
